<svg width="240" height="275" viewBox="0 0 240 275" fill="none" xmlns="http://www.w3.org/2000/svg">
<g filter="url(#filter0_d_2_184)">
<path d="M234.977 119.766C234.977 183.034 183.544 265.569 120.1 265.569C56.6564 265.569 5.22266 183.034 5.22266 119.766C5.22266 56.4984 56.6564 5.20709 120.1 5.20709C183.544 5.20709 234.977 56.4984 234.977 119.766Z" fill="white" stroke="#D9D9D9" stroke-width="1.27143" stroke-miterlimit="10"/>
<path d="M120.099 203.082C169.125 203.082 208.868 163.449 208.868 114.559C208.868 65.6691 169.125 26.0359 120.099 26.0359C71.0732 26.0359 31.3301 65.6691 31.3301 114.559C31.3301 163.449 71.0732 203.082 120.099 203.082Z" fill="#F17431"/>
<path d="M93.9918 160.279C89.6578 160.279 85.9504 158.769 82.8696 155.696C79.7888 152.624 78.2745 148.979 78.2745 144.605H73.0528C70.1808 144.605 67.7266 143.564 65.6902 141.533C63.6537 139.502 62.6094 137.055 62.6094 134.191V118.569C62.6094 115.705 63.6537 113.257 65.6902 111.227C67.7266 109.196 70.1808 108.154 73.0528 108.154H120.048V87.3254C120.048 84.4614 121.092 82.014 123.129 79.9832C125.165 77.9524 127.619 76.9109 130.491 76.9109H140.935V71.7037C140.935 70.2457 141.457 68.9959 142.449 68.0066C143.441 67.0172 144.694 66.4965 146.157 66.4965H151.378C152.84 66.4965 154.093 67.0172 155.086 68.0066C156.078 68.9959 156.6 70.2457 156.6 71.7037V76.9109H159.472C161.717 76.9109 163.806 77.5879 165.633 78.8897C167.461 80.1915 168.714 81.9099 169.445 84.0969L177.017 106.488C177.173 107.009 177.33 107.53 177.434 108.102C177.539 108.675 177.591 109.248 177.591 109.873V134.243C177.591 137.107 176.547 139.554 174.51 141.585C172.474 143.616 170.02 144.657 167.148 144.657H161.926C161.926 148.979 160.412 152.676 157.331 155.749C154.25 158.821 150.595 160.331 146.209 160.331C141.822 160.331 138.167 158.821 135.087 155.749C132.006 152.676 130.491 149.031 130.491 144.657H109.605C109.605 148.979 108.09 152.676 105.01 155.749C101.929 158.821 98.2736 160.331 93.8873 160.331L93.9918 160.279ZM93.9918 149.864C95.4538 149.864 96.707 149.344 97.6992 148.354C98.6913 147.365 99.2135 146.115 99.2135 144.657C99.2135 143.199 98.6913 141.949 97.6992 140.96C96.707 139.971 95.4538 139.45 93.9918 139.45C92.5297 139.45 91.2765 139.971 90.2844 140.96C89.2922 141.949 88.7701 143.199 88.7701 144.657C88.7701 146.115 89.2922 147.365 90.2844 148.354C91.2765 149.344 92.5297 149.864 93.9918 149.864ZM146.209 149.864C147.671 149.864 148.924 149.344 149.916 148.354C150.908 147.365 151.43 146.115 151.43 144.657C151.43 143.199 150.908 141.949 149.916 140.96C148.924 139.971 147.671 139.45 146.209 139.45C144.747 139.45 143.493 139.971 142.501 140.96C141.509 141.949 140.987 143.199 140.987 144.657C140.987 146.115 141.509 147.365 142.501 148.354C143.493 149.344 144.747 149.864 146.209 149.864ZM73.105 118.621V134.243H82.3996C83.8617 132.576 85.6371 131.327 87.6213 130.389C89.6055 129.452 91.7464 129.035 94.044 129.035C96.3415 129.035 98.4302 129.504 100.467 130.389C102.503 131.275 104.226 132.576 105.688 134.243H120.205V118.621H73.2094H73.105ZM130.544 134.243H134.617C136.079 132.576 137.854 131.327 139.838 130.389C141.823 129.452 143.963 129.035 146.261 129.035C148.558 129.035 150.647 129.504 152.684 130.389C154.72 131.275 156.443 132.576 157.905 134.243H167.2V118.621H130.648V134.243H130.544ZM130.544 108.206H166.573L159.524 87.3775H130.544V108.206ZM67.8833 95.1884V84.7739H66.5779C65.4291 84.7739 64.4892 84.4094 63.7581 83.6803C63.0271 82.9513 62.6616 82.014 62.6616 80.8684C62.6616 79.7228 63.0271 78.7855 63.7581 78.0565C64.4892 77.3275 65.4291 76.963 66.5779 76.963H110.962C112.111 76.963 113.051 77.3275 113.782 78.0565C114.513 78.7855 114.879 79.7228 114.879 80.8684C114.879 82.014 114.513 82.9513 113.782 83.6803C113.051 84.4094 112.111 84.7739 110.962 84.7739H109.657V95.1884H110.962C112.111 95.1884 113.051 95.5529 113.782 96.2819C114.513 97.0109 114.879 97.9482 114.879 99.0938C114.879 100.239 114.513 101.177 113.782 101.906C113.051 102.635 112.111 102.999 110.962 102.999H66.5779C65.4291 102.999 64.4892 102.635 63.7581 101.906C63.0271 101.177 62.6616 100.239 62.6616 99.0938C62.6616 97.9482 63.0271 97.0109 63.7581 96.2819C64.4892 95.5529 65.4291 95.1884 66.5779 95.1884H67.8833ZM75.7158 95.1884H84.8538V84.7739H75.7158V95.1884ZM92.6863 95.1884H101.824V84.7739H92.6863V95.1884Z" fill="white"/>
</g>
<defs>
<filter id="filter0_d_2_184" x="-4" y="0" width="248" height="279" filterUnits="userSpaceOnUse" color-interpolation-filters="sRGB">
<feFlood flood-opacity="0" result="BackgroundImageFix"/>
<feColorMatrix in="SourceAlpha" type="matrix" values="0 0 0 0 0 0 0 0 0 0 0 0 0 0 0 0 0 0 127 0" result="hardAlpha"/>
<feOffset dy="4"/>
<feGaussianBlur stdDeviation="2"/>
<feColorMatrix type="matrix" values="0 0 0 0 0 0 0 0 0 0 0 0 0 0 0 0 0 0 0.25 0"/>
<feBlend mode="normal" in2="BackgroundImageFix" result="effect1_dropShadow_2_184"/>
<feBlend mode="normal" in="SourceGraphic" in2="effect1_dropShadow_2_184" result="shape"/>
</filter>
</defs>
</svg>
