<?xml version="1.0" encoding="UTF-8"?>
<svg id="Capa_5" xmlns="http://www.w3.org/2000/svg" version="1.1" viewBox="0 0 24 24">
  <!-- Generator: Adobe Illustrator 29.6.1, SVG Export Plug-In . SVG Version: 2.1.1 Build 9)  -->
  <path d="M5,19h0c0-.6.4-1,1-1h.6l2-6.6c.1-.4.4-.8.7-1s.8-.4,1.2-.4h3c.4,0,.8.1,1.2.4s.6.6.7,1l2,6.6h.6c.6,0,1,.4,1,1h0c0,.6-.4,1-1,1H6c-.6,0-1-.4-1-1ZM8.7,18h6.6l-1.8-6h-3l-1.8,6ZM11,7v-3c0-.6.4-1,1-1h0c.6,0,1,.4,1,1v3c0,.6-.4,1-1,1h0c-.6,0-1-.4-1-1ZM16.2,9.8h0c-.4-.4-.4-1,0-1.4l2.1-2.1c.4-.4,1-.4,1.4,0h0c.4.4.4,1,0,1.4l-2.1,2.1c-.4.4-1,.4-1.4,0ZM18,14h0c0-.6.4-1,1-1h3c.6,0,1,.4,1,1h0c0,.6-.4,1-1,1h-3c-.6,0-1-.4-1-1ZM6.3,9.8l-2.1-2.1c-.4-.4-.4-1,0-1.4h0c.4-.4,1-.4,1.4,0l2.1,2.1c.4.4.4,1,0,1.4h0c-.4.4-1,.4-1.4,0ZM1,14h0c0-.6.4-1,1-1h3c.6,0,1,.4,1,1h0c0,.6-.4,1-1,1H2c-.6,0-1-.4-1-1Z"/>
</svg>